<?xml version="1.0" encoding="UTF-8"?>
<svg width="1200pt" height="1200pt" version="1.1" viewBox="0 0 1200 1200" xmlns="http://www.w3.org/2000/svg">
 <g>
  <path d="m99.301 773.86c-11.258-4.1055-23.773 1.7383-27.875 13.02-5.7852 15.91-9.5742 31.801-11.293 47.258-1.332 11.93 7.2734 22.715 19.223 24.035 0.81641 0.10938 1.6211 0.14453 2.4258 0.14453 10.945 0 20.352-8.2422 21.602-19.344 1.332-12.035 4.3438-24.539 8.9414-37.223 4.1133-11.305-1.707-23.773-13.023-27.891z"/>
  <path d="m394.87 645.31c-28.727-21.277-60.84-32.461-95.566-33.047-11.867-0.25391-21.926 9.3711-22.129 21.371-0.20312 12.023 9.3711 21.926 21.395 22.141 26.305 0.43359 50.711 9.1914 72.574 26.027 1.9219 1.4766 4.0312 2.5547 6.2031 3.3125l7.8711-17.93z"/>
  <path d="m200.23 638.41c-28.164 15.324-54.91 37.043-77.363 62.809-7.8945 9.0469-6.9609 22.789 2.1133 30.695 4.1172 3.5898 9.2148 5.3516 14.27 5.3516 6.0703 0 12.121-2.5312 16.414-7.4766 19.078-21.898 41.676-40.262 65.363-53.148 10.547-5.7344 14.461-18.961 8.7109-29.508-5.7344-10.543-18.934-14.445-29.508-8.7227z"/>
  <path d="m532.11 761.26c-12.395-4.5-24.781-11.039-37.066-19.402l-1.7383 3.9609-11.004 25.02-5.0039 11.387c13.141 8.3164 26.496 15.047 39.996 19.945 2.4492 0.88672 4.957 1.3086 7.4297 1.3086 8.9023 0 17.242-5.5078 20.461-14.34 4.0586-11.309-1.7578-23.777-13.074-27.879z"/>
  <path d="m795.79 560.36c-11.316-3.9844-23.746 1.9805-27.73 13.32-10.199 29.004-22.547 55.945-36.719 80.062-6.0859 10.355-2.6406 23.688 7.7383 29.773 3.457 2.0391 7.2461 3 10.992 3 7.4648 0 14.746-3.8398 18.793-10.754 15.574-26.543 29.125-56.027 40.246-87.672 3.9961-11.324-1.9688-23.746-13.32-27.73z"/>
  <path d="m1016.5 321.04c-34.57-9-70.523-5.5664-104.64 9.9609-10.934 4.9805-15.758 17.891-10.789 28.812 3.6602 8.0156 11.543 12.758 19.812 12.758 3.0117 0 6.0703-0.63672 8.9883-1.9688 25.008-11.387 50.711-13.969 75.625-7.4531 11.617 3 23.508-3.9492 26.555-15.574 3.0469-11.617-3.9219-23.5-15.551-26.535z"/>
  <path d="m678.64 721.8c-22.129 21.023-45.457 35.258-69.371 42.266-11.531 3.3711-18.145 15.469-14.762 27 2.7852 9.4922 11.461 15.637 20.867 15.637 2.0391 0 4.0938-0.27734 6.1445-0.875 30.625-8.9531 59.941-26.652 87.133-52.488 8.7109-8.3047 9.0469-22.066 0.76953-30.793-8.3164-8.7031-22.082-9.0508-30.781-0.74609z"/>
  <path d="m863.04 391.23c-9.4336-7.4297-23.113-5.7969-30.551 3.625-21.574 27.395-35.977 57.66-40.559 85.188l-1.3203 7.6914c-2.125 11.82 5.7344 23.137 17.566 25.262 1.2852 0.22656 2.5938 0.33594 3.8516 0.33594 10.332 0 19.512-7.3906 21.395-17.93l1.4141-8.1836c3.3594-20.184 14.953-44.039 31.812-65.461 7.4805-9.418 5.8359-23.086-3.6094-30.527z"/>
  <path d="m1135.6 409.54c-9.875-12.996-20.184-24.805-30.613-35.113-8.5547-8.4492-22.32-8.3633-30.758 0.19141-8.4492 8.5547-8.3633 22.32 0.19141 30.77 8.9883 8.8672 17.902 19.129 26.543 30.48 4.2734 5.6406 10.777 8.5938 17.328 8.5938 4.5977 0 9.2266-1.4531 13.152-4.4414 9.5703-7.2578 11.441-20.914 4.1562-30.48z"/>
  <path d="m528.89 342.88c-88.223 0-159.97 71.762-159.97 159.98 0 41.23 15.805 78.758 41.508 107.15 5.207 5.7344 10.68 11.23 16.656 16.164l-21.926 49.789-21.457 48.816-63.602 144.5c-9.6719 22.008 0.32422 47.688 22.309 57.371 5.6875 2.5078 11.641 3.707 17.508 3.707 16.715 0 32.676-9.7188 39.84-26.004l59.352-134.84 3.2656-7.4141 11.016-25.02 3.8398-8.7461 29.566-67.164c7.2461 1.0078 14.578 1.7031 22.094 1.7031 0.3125 0 0.625-0.035156 0.9375-0.035156 87.793-0.50391 159.04-72.035 159.04-159.96 0.003906-88.227-71.742-160-159.97-160zm20.941 274.46c-6.8047 1.2461-13.789 1.9922-20.953 1.9922-1.2109 0-2.3984-0.15625-3.6367-0.20312-11.508-0.33594-22.621-2.3398-33.07-5.8203-3.4688-1.1641-6.8398-2.4609-10.152-3.9258-3.3359-1.4766-6.5898-3.0703-9.7578-4.8477-9.8633-5.5078-18.816-12.406-26.664-20.461-5.7344-5.8906-10.812-12.422-15.238-19.402-11.27-17.941-17.93-39.098-17.93-61.824 0-64.223 52.246-116.47 116.46-116.47 64.211 0 116.46 52.246 116.46 116.47-0.011718 57.086-41.293 104.59-95.52 114.49z"/>
 </g>
</svg>
